/* XPM */
/* This file is a part of the NsCDE - Not so Common Desktop Environment */
static char * FullPalette_xpm[] = {
"84 32 41 1",
" 	c None",
".	c #4ec322941f37",
"+	c #a4a448484141",
"@	c #d5e6ab57a81a",
"#	c #ffffffffffff",
"$	c #8bf13d703777",
"%	c #4c95428132e3",
"&	c #989884846565",
"*	c #d18fc88bba92",
"=	c #ffffffffffff",
"-	c #81b470a3562f",
";	c #48cb33272cc2",
">	c #949468685b5b",
",	c #cf1ebb04b514",
"'	c #ffffffffffff",
")	c #7e4a58be4da6",
"!	c #290b1da41b5c",
"~	c #5a0041003c00",
"{	c #b1a6a5d9a37d",
"]	c #ffffffffffff",
"^	c #4c8037403300",
"/	c #52bc472126d8",
"(	c #a4a48d8d4d4d",
"_	c #d700cca3afce",
":	c #ffffffffffff",
"<	c #8bf1785141b4",
"[	c #35e347d93861",
"}	c #6c6c90907171",
"|	c #bd5ecdafbfa2",
"1	c #ffffffffffff",
"2	c #5c287ae0606c",
"3	c #4145211b1ebe",
"4	c #8a8a46464141",
"5	c #c972a9bda769",
"6	c #ffffffffffff",
"7	c #75c23bbb3777",
"8	c #5f9b529e3266",
"9	c #b8b89f9f6161",
"0	c #e08cd579ba03",
"a	c #ffffffffffff",
"b	c #9d0287ad52c5",
"||||||||||||||||||||||||||||||||||||||||||||||||||||||||||||||||||||||||||||||||||||",
"|||||||||||||||||||||||||||||||||||||||||||||||||||||||||||||||||||||||||||||||||||[",
"||..++@@##$$%%&&**==--;;>>,,''))!!~~{{]]^^//((__::<<[[}}||11223344556677889900aabb[[",
"||..++@@##$$%%&&**==--;;>>,,''))!!~~{{]]^^//((__::<<[[}}||11223344556677889900aabb[[",
"||..++@@##$$%%&&**==--;;>>,,''))!!~~{{]]^^//((__::<<[[}}||11223344556677889900aabb[[",
"||..++@@##$$%%&&**==--;;>>,,''))!!~~{{]]^^//((__::<<[[}}||11223344556677889900aabb[[",
"||..++@@##$$%%&&**==--;;>>,,''))!!~~{{]]^^//((__::<<[[}}||11223344556677889900aabb[[",
"||..++@@##$$%%&&**==--;;>>,,''))!!~~{{]]^^//((__::<<[[}}||11223344556677889900aabb[[",
"||..++@@##$$%%&&**==--;;>>,,''))!!~~{{]]^^//((__::<<[[}}||11223344556677889900aabb[[",
"||..++@@##$$%%&&**==--;;>>,,''))!!~~{{]]^^//((__::<<[[}}||11223344556677889900aabb[[",
"||..++@@##$$%%&&**==--;;>>,,''))!!~~{{]]^^//((__::<<[[}}||11223344556677889900aabb[[",
"||..++@@##$$%%&&**==--;;>>,,''))!!~~{{]]^^//((__::<<[[}}||11223344556677889900aabb[[",
"||..++@@##$$%%&&**==--;;>>,,''))!!~~{{]]^^//((__::<<[[}}||11223344556677889900aabb[[",
"||..++@@##$$%%&&**==--;;>>,,''))!!~~{{]]^^//((__::<<[[}}||11223344556677889900aabb[[",
"||..++@@##$$%%&&**==--;;>>,,''))!!~~{{]]^^//((__::<<[[}}||11223344556677889900aabb[[",
"||..++@@##$$%%&&**==--;;>>,,''))!!~~{{]]^^//((__::<<[[}}||11223344556677889900aabb[[",
"||..++@@##$$%%&&**==--;;>>,,''))!!~~{{]]^^//((__::<<[[}}||11223344556677889900aabb[[",
"||..++@@##$$%%&&**==--;;>>,,''))!!~~{{]]^^//((__::<<[[}}||11223344556677889900aabb[[",
"||..++@@##$$%%&&**==--;;>>,,''))!!~~{{]]^^//((__::<<[[}}||11223344556677889900aabb[[",
"||..++@@##$$%%&&**==--;;>>,,''))!!~~{{]]^^//((__::<<[[}}||11223344556677889900aabb[[",
"||..++@@##$$%%&&**==--;;>>,,''))!!~~{{]]^^//((__::<<[[}}||11223344556677889900aabb[[",
"||..++@@##$$%%&&**==--;;>>,,''))!!~~{{]]^^//((__::<<[[}}||11223344556677889900aabb[[",
"||..++@@##$$%%&&**==--;;>>,,''))!!~~{{]]^^//((__::<<[[}}||11223344556677889900aabb[[",
"||..++@@##$$%%&&**==--;;>>,,''))!!~~{{]]^^//((__::<<[[}}||11223344556677889900aabb[[",
"||..++@@##$$%%&&**==--;;>>,,''))!!~~{{]]^^//((__::<<[[}}||11223344556677889900aabb[[",
"||..++@@##$$%%&&**==--;;>>,,''))!!~~{{]]^^//((__::<<[[}}||11223344556677889900aabb[[",
"||..++@@##$$%%&&**==--;;>>,,''))!!~~{{]]^^//((__::<<[[}}||11223344556677889900aabb[[",
"||..++@@##$$%%&&**==--;;>>,,''))!!~~{{]]^^//((__::<<[[}}||11223344556677889900aabb[[",
"||..++@@##$$%%&&**==--;;>>,,''))!!~~{{]]^^//((__::<<[[}}||11223344556677889900aabb[[",
"||..++@@##$$%%&&**==--;;>>,,''))!!~~{{]]^^//((__::<<[[}}||11223344556677889900aabb[[",
"||[[[[[[[[[[[[[[[[[[[[[[[[[[[[[[[[[[[[[[[[[[[[[[[[[[[[[[[[[[[[[[[[[[[[[[[[[[[[[[[[[[",
"|[[[[[[[[[[[[[[[[[[[[[[[[[[[[[[[[[[[[[[[[[[[[[[[[[[[[[[[[[[[[[[[[[[[[[[[[[[[[[[[[[[["};
